HIERARCHY
ROOT Hips
{
	OFFSET 0.000000 0.000000 0.000000
	CHANNELS 6 Xposition Yposition Zposition Xrotation Yrotation Zrotation
	JOINT LeftUpLeg_virtual
	{
		OFFSET 0.000000 0.000000 0.000000
		CHANNELS 3 Xrotation Yrotation Zrotation
		JOINT LeftUpLeg
		{
			OFFSET 11.394100 -6.187798 -0.413800
			CHANNELS 3 Xrotation Yrotation Zrotation
			JOINT LeftLeg
			{
				OFFSET 0.430247 -32.302673 3.732800
				CHANNELS 3 Xrotation Yrotation Zrotation
				JOINT LeftFoot
				{
					OFFSET -0.430247 -48.264931 -6.423300
					CHANNELS 3 Xrotation Yrotation Zrotation
					JOINT LeftToeBase
					{
						OFFSET 4.230900 -16.068199 23.438400
						CHANNELS 3 Xrotation Yrotation Zrotation
						JOINT LeftToe_End
						{
							OFFSET 4.510700 0.695400 19.974600
							CHANNELS 3 Xrotation Yrotation Zrotation
							End Site
							{
								OFFSET 0 0 0
							}
						}
					}
				}
			}
		}
	}
	JOINT RightUpLeg_virtual
	{
		OFFSET 0.000000 0.000000 0.000000
		CHANNELS 3 Xrotation Yrotation Zrotation
		JOINT RightUpLeg
		{
			OFFSET -11.333700 -6.187798 -0.413800
			CHANNELS 3 Xrotation Yrotation Zrotation
			JOINT RightLeg
			{
				OFFSET -0.430392 -32.302628 3.733000
				CHANNELS 3 Xrotation Yrotation Zrotation
				JOINT RightFoot
				{
					OFFSET 0.430392 -48.264973 -6.423500
					CHANNELS 3 Xrotation Yrotation Zrotation
					JOINT RightToeBase
					{
						OFFSET -4.230900 -16.068199 23.438400
						CHANNELS 3 Xrotation Yrotation Zrotation
						JOINT RightToe_End
						{
							OFFSET -4.510700 0.695400 19.974600
							CHANNELS 3 Xrotation Yrotation Zrotation
							End Site
							{
								OFFSET 0 0 0
							}
						}
					}
				}
			}
		}
	}
	JOINT Spine_virtual
	{
		OFFSET 0.000000 0.000000 0.000000
		CHANNELS 3 Xrotation Yrotation Zrotation
		JOINT Spine
		{
			OFFSET -0.002400 12.777504 0.315300
			CHANNELS 3 Xrotation Yrotation Zrotation
			JOINT Spine1
			{
				OFFSET -0.002067 5.816869 0.032633
				CHANNELS 3 Xrotation Yrotation Zrotation
				JOINT Spine1_split
				{
					OFFSET -0.002067 5.816869 0.032633
					CHANNELS 3 Xrotation Yrotation Zrotation
					JOINT Spine2
					{
						OFFSET -0.002067 5.816869 0.032633
						CHANNELS 3 Xrotation Yrotation Zrotation
						JOINT Neck_virtual
						{
							OFFSET 0.000000 0.000000 0.000000
							CHANNELS 3 Xrotation Yrotation Zrotation
							JOINT Neck
							{
								OFFSET -0.003700 21.199493 -0.826900
								CHANNELS 3 Xrotation Yrotation Zrotation
								JOINT Head
								{
									OFFSET 0.000000 20.442200 4.834800
									CHANNELS 3 Xrotation Yrotation Zrotation
									JOINT HeadTop_End
									{
										OFFSET 0.000000 34.668396 4.968400
										CHANNELS 3 Xrotation Yrotation Zrotation
										End Site
										{
											OFFSET 0 0 0
										}
									}
								}
							}
						}
						JOINT LeftShoulder_virtual
						{
							OFFSET 0.000000 0.000000 0.000000
							CHANNELS 3 Xrotation Yrotation Zrotation
							JOINT LeftShoulder
							{
								OFFSET 3.288150 8.794197 -1.372250
								CHANNELS 3 Xrotation Yrotation Zrotation
								JOINT LeftShoulder_split
								{
									OFFSET 3.288150 8.794197 -1.372250
									CHANNELS 3 Xrotation Yrotation Zrotation
									JOINT LeftArm
									{
										OFFSET 11.953299 -2.279007 -0.146200
										CHANNELS 3 Xrotation Yrotation Zrotation
										JOINT LeftForeArm
										{
											OFFSET 18.448900 0.000000 0.000000
											CHANNELS 3 Xrotation Yrotation Zrotation
											JOINT LeftHand
											{
												OFFSET 29.527798 0.000000 0.000000
												CHANNELS 3 Xrotation Yrotation Zrotation
												End Site
												{
													OFFSET 0 0 0
												}
											}
										}
									}
								}
							}
						}
						JOINT RightShoulder_virtual
						{
							OFFSET 0.000000 0.000000 0.000000
							CHANNELS 3 Xrotation Yrotation Zrotation
							JOINT RightShoulder
							{
								OFFSET -3.249400 8.794197 -1.372250
								CHANNELS 3 Xrotation Yrotation Zrotation
								JOINT RightShoulder_split
								{
									OFFSET -3.249400 8.794197 -1.372250
									CHANNELS 3 Xrotation Yrotation Zrotation
									JOINT RightArm
									{
										OFFSET -11.953299 -2.279007 -0.146200
										CHANNELS 3 Xrotation Yrotation Zrotation
										JOINT RightForeArm
										{
											OFFSET -18.448900 0.000000 0.000000
											CHANNELS 3 Xrotation Yrotation Zrotation
											JOINT RightHand
											{
												OFFSET -29.527802 0.000000 0.000000
												CHANNELS 3 Xrotation Yrotation Zrotation
												End Site
												{
													OFFSET 0 0 0
												}
											}
										}
									}
								}
							}
						}
					}
				}
			}
		}
	}
}
MOTION
Frames: 8
Frame Time: 0.03333333
6.533494 78.546066 137.728989 0.000000 0.000000 0.000000 6.161988 -27.885429 0.956290 12.641679 31.437196 12.994762 41.275912 23.389532 -4.062495 -30.719869 0.237094 -35.857711 -16.304246 -2.676126 -1.304379 0.000000 0.000000 0.000000 8.434724 -22.218197 1.045144 -70.219966 -4.868087 -6.291601 52.138355 3.022878 -5.115400 10.255940 7.962103 5.564451 -4.916920 3.596831 3.048000 0.000000 0.000000 0.000000 6.312973 -24.440570 2.543177 2.876704 -2.744299 -0.148805 2.935331 -6.631130 0.870045 2.390384 -4.405934 0.570406 0.000000 0.000000 0.000000 3.382743 -6.189230 0.543432 12.715125 1.849376 11.215148 -1.520438 4.553921 -15.808698 0.000000 0.000000 0.000000 4.396211 -7.328040 0.182993 -2.928360 -15.283834 -17.557051 -6.259190 8.517280 -0.097562 -44.835179 -9.586095 -24.695066 -20.215309 -71.221975 9.251856 0.000000 0.000000 0.000000 3.405502 -6.111734 1.696993 -0.352173 -1.143805 -1.109333 -5.008091 -1.187823 -3.505800 -28.207336 42.512696 6.471561 47.520799 30.420556 -20.159964 0.000000 0.000000 0.000000 
5.924481 78.278320 142.495148 0.000000 0.000000 0.000000 9.523747 -31.405463 1.688113 18.089555 31.883104 9.705837 34.669323 26.430923 -2.397104 -29.884714 -1.052571 -37.362938 -22.141539 -1.743607 -0.287844 0.000000 0.000000 0.000000 11.712127 -26.986335 1.604549 -70.482867 -5.526263 -2.326021 51.623236 2.416012 -4.761984 6.770656 8.075070 4.285311 -5.099899 2.305268 3.441728 0.000000 0.000000 0.000000 9.282049 -29.109751 1.884136 2.902366 -5.412578 0.147613 3.281484 -10.164271 2.021521 2.174540 -2.769019 0.543536 0.000000 0.000000 0.000000 3.511914 -9.586966 2.001902 9.515157 4.914126 13.125582 1.118886 11.033587 -19.983730 0.000000 0.000000 0.000000 4.552405 -10.785610 1.746434 -4.772208 -20.324606 -18.179346 -6.812860 9.388411 0.259534 -42.082127 -18.090781 -29.333798 -15.125145 -55.258956 10.250238 0.000000 0.000000 0.000000 3.447897 -9.576496 3.136162 -0.081599 -3.481943 5.874191 -4.163521 -1.239371 -3.706801 -18.872827 31.977341 -1.022424 37.969527 23.559192 -8.946285 0.000000 0.000000 0.000000 
5.050006 78.418907 147.084793 0.000000 0.000000 0.000000 12.979849 -33.834268 2.189970 20.276678 31.428347 9.426485 30.326521 29.174344 -0.552492 -23.796767 -3.577759 -36.259616 -26.132966 0.535837 -2.523990 0.000000 0.000000 0.000000 14.675324 -30.265661 1.882577 -69.890812 -5.879529 0.781681 51.819477 1.880150 -4.390368 2.093902 8.202433 2.554302 -3.191360 1.619653 3.228734 0.000000 0.000000 0.000000 11.814790 -32.181741 1.091023 2.892216 -7.439267 0.429887 3.824936 -12.696203 3.053600 1.365268 -1.493223 0.510184 0.000000 0.000000 0.000000 4.125649 -11.983709 3.364959 5.821926 7.476287 14.959699 3.624353 16.061069 -22.931896 0.000000 0.000000 0.000000 4.866446 -13.135892 3.138748 -5.857852 -23.988809 -17.109651 -7.054328 9.043669 0.351652 -40.312371 -26.883947 -34.675798 -12.496528 -40.120039 8.482459 0.000000 0.000000 0.000000 3.584312 -12.081629 4.285355 0.349114 -5.305705 10.505019 -3.058309 -0.884956 -3.033786 -16.046490 23.304303 -2.468619 31.163271 22.805597 -3.226848 0.000000 0.000000 0.000000 
4.036710 78.924683 151.526566 0.000000 0.000000 0.000000 15.746214 -36.234468 2.266879 17.714118 30.705607 13.214347 31.447567 31.251722 0.313321 -11.188922 -7.604611 -31.749479 -26.675249 4.397641 -8.678217 0.000000 0.000000 0.000000 16.842729 -32.861157 1.708793 -68.278082 -5.888648 3.047614 52.601063 1.776427 -4.074898 -2.381096 8.730688 1.363852 -1.231097 1.457830 2.180058 0.000000 0.000000 0.000000 13.389740 -34.668609 0.125243 2.869395 -8.667265 0.784314 4.350625 -14.146129 3.747493 0.659084 -0.903166 0.432101 0.000000 0.000000 0.000000 4.917371 -13.303055 4.306668 2.089490 9.562448 16.679491 5.543624 19.823825 -24.599939 0.000000 0.000000 0.000000 5.095547 -14.371480 4.082874 -6.144553 -26.262272 -14.717784 -6.691692 7.866706 0.017353 -41.041681 -34.447646 -41.088673 -10.804098 -28.724391 5.780255 0.000000 0.000000 0.000000 3.679440 -13.529117 4.957136 0.722485 -6.194554 12.829880 -1.588239 -0.276547 -1.889975 -16.536580 16.971546 -1.225443 24.757467 26.230583 -0.330931 0.000000 0.000000 0.000000 
3.138719 79.682770 155.694504 0.000000 0.000000 0.000000 17.192869 -39.358501 1.964152 9.844732 29.277654 20.580482 39.296418 32.494427 -0.691512 6.082129 -10.995838 -23.399714 -22.307633 8.946866 -19.095599 0.000000 0.000000 0.000000 17.702757 -35.455744 1.116359 -65.357165 -5.452736 4.637985 52.910101 2.439010 -3.944346 -5.771343 9.730058 1.413221 -0.542670 1.573675 0.583588 0.000000 0.000000 0.000000 13.700454 -37.305004 -1.006004 2.927963 -9.086792 1.211110 4.676195 -14.624724 3.983985 0.281457 -0.822950 0.841963 0.000000 0.000000 0.000000 5.559146 -13.705713 4.676490 -1.243546 11.308084 18.208246 6.726623 22.632836 -25.036900 0.000000 0.000000 0.000000 5.027426 -14.678923 4.372262 -5.827988 -27.221169 -11.783804 -5.697481 6.364759 -0.775148 -44.419230 -39.359272 -47.977533 -9.626871 -21.340972 2.899069 0.000000 0.000000 0.000000 3.643010 -14.002556 5.119858 0.947706 -5.823783 13.218004 -0.161373 -0.317770 0.021912 -18.342249 12.715195 1.103932 17.873709 29.749312 1.429158 0.000000 0.000000 0.000000 
2.406878 80.595291 159.608994 0.000000 0.000000 0.000000 16.978718 -42.779070 1.171417 -1.781056 25.832102 29.790181 51.318893 32.187389 -2.718346 22.254592 -11.400260 -13.213928 -14.375795 12.012182 -31.676184 0.000000 0.000000 0.000000 17.075816 -38.219034 0.150201 -60.942056 -4.392755 5.740288 52.027016 3.690926 -4.090507 -8.728981 10.994113 2.613195 -0.938808 1.772207 -0.927753 0.000000 0.000000 0.000000 12.799409 -40.333937 -2.229496 3.157542 -8.888150 1.696591 4.707700 -14.359573 3.804842 0.493711 -1.258416 1.143513 0.000000 0.000000 0.000000 5.766783 -13.432547 4.449713 -3.937849 12.687483 19.306903 7.022582 24.609766 -24.349894 0.000000 0.000000 0.000000 4.685722 -14.293734 4.062548 -5.132175 -27.122543 -8.987208 -4.563216 4.439583 -1.457585 -49.149109 -41.250504 -53.963009 -8.873511 -17.040560 0.301096 0.000000 0.000000 0.000000 3.415668 -13.735885 4.853903 1.074764 -4.528138 12.355290 1.209288 -1.118850 1.774384 -20.392104 10.115370 3.583680 10.495991 29.431558 2.694462 0.000000 0.000000 0.000000 
1.789745 81.466721 163.567184 0.000000 0.000000 0.000000 15.300652 -46.056806 0.208011 -14.322902 20.128383 37.654290 63.813494 29.653598 -3.984179 31.950932 -10.036412 -5.133070 -7.300373 13.061530 -41.675755 0.000000 0.000000 0.000000 15.298210 -41.161971 -0.805117 -55.323576 -2.686917 6.313938 49.725608 4.839772 -4.301488 -11.868792 12.021253 3.867718 -1.579006 1.840780 -1.702622 0.000000 0.000000 0.000000 10.799718 -43.761456 -3.362275 3.574543 -8.334795 2.153493 4.451065 -13.668977 3.296981 1.055877 -1.311605 1.522012 0.000000 0.000000 0.000000 5.446926 -12.762948 3.761323 -5.683168 13.771215 19.739609 6.666823 25.792809 -22.814992 0.000000 0.000000 0.000000 4.209428 -13.549297 3.350227 -4.218350 -26.231509 -6.496741 -3.410037 2.556343 -2.174688 -53.745792 -41.578176 -57.627590 -8.252657 -14.863750 -1.720015 0.000000 0.000000 0.000000 3.017242 -13.014995 4.297797 1.181678 -2.996246 10.812329 2.687627 -2.091256 2.698899 -23.003056 8.547545 5.442070 3.390212 24.978651 3.130264 0.000000 0.000000 0.000000 
1.215574 82.174835 167.595810 0.000000 0.000000 0.000000 12.677890 -48.649354 -0.662589 -25.242516 14.114189 42.035283 73.547620 25.898785 -3.691235 33.556149 -8.896774 0.244929 -3.076837 13.017652 -46.380365 0.000000 0.000000 0.000000 12.780628 -44.084701 -1.395571 -49.389655 -0.175460 6.150281 46.695900 5.685793 -4.508385 -15.222612 12.475288 4.911788 -1.842708 1.586031 -1.553699 0.000000 0.000000 0.000000 8.071382 -47.082096 -4.155350 4.120270 -7.646684 2.418820 4.052891 -12.762815 2.639623 1.168285 -0.928355 1.715786 0.000000 0.000000 0.000000 4.740378 -11.895778 2.859067 -6.235638 14.410104 19.390369 6.025700 26.158544 -20.668695 0.000000 0.000000 0.000000 3.745043 -12.585538 2.491921 -3.180000 -24.654285 -4.357296 -2.598738 0.388653 -2.370886 -57.844305 -41.943792 -58.579780 -7.651744 -14.534156 -3.082838 0.000000 0.000000 0.000000 2.532184 -12.088075 3.605662 1.275992 -2.138280 8.652376 4.075062 -3.135285 2.904110 -27.330507 8.344487 6.982219 -2.890619 20.161149 2.643653 0.000000 0.000000 0.000000 
